<svg id="Layer_1" data-name="Layer 1" xmlns="http://www.w3.org/2000/svg" xmlns:xlink="http://www.w3.org/1999/xlink" viewBox="0 0 405.66 99.79"><defs><style>.cls-1{fill:url(#linear-gradient);}.cls-2{fill:none;}.cls-3,.cls-30{fill:#fff;}.cls-4{clip-path:url(#clip-path);}.cls-5{fill:url(#linear-gradient-3);}.cls-6{clip-path:url(#clip-path-2);}.cls-7{fill:url(#linear-gradient-4);}.cls-8{clip-path:url(#clip-path-3);}.cls-9{fill:url(#linear-gradient-5);}.cls-10{clip-path:url(#clip-path-4);}.cls-11{fill:url(#linear-gradient-6);}.cls-12{clip-path:url(#clip-path-5);}.cls-13{fill:url(#linear-gradient-7);}.cls-14{clip-path:url(#clip-path-6);}.cls-15{fill:url(#linear-gradient-8);}.cls-16{fill:url(#linear-gradient-9);}.cls-17{fill:url(#linear-gradient-10);}.cls-18{fill:url(#linear-gradient-11);}.cls-19{fill:url(#linear-gradient-12);}.cls-20{fill:url(#linear-gradient-13);}.cls-21{fill:url(#linear-gradient-14);}.cls-22{fill:url(#linear-gradient-15);}.cls-23{fill:url(#linear-gradient-16);}.cls-24{fill:url(#linear-gradient-17);}.cls-25{fill:url(#linear-gradient-18);}.cls-26{fill:url(#linear-gradient-19);}.cls-27{fill:url(#linear-gradient-20);}.cls-28{fill:url(#linear-gradient-21);}.cls-29{fill:url(#linear-gradient-22);}.cls-30{font-size:32px;font-family:Champagne&Limousines-Italic, "Champagne & Limousines";font-style:italic;letter-spacing:0.04em;}</style><linearGradient id="linear-gradient" x1="69.34" y1="73.22" x2="148.64" y2="73.22" gradientUnits="userSpaceOnUse"><stop offset="0" stop-color="#79b92d"/><stop offset="1" stop-color="#beec32"/></linearGradient><clipPath id="clip-path" transform="translate(-59.3 -27.93)"><path class="cls-1" d="M109.89,71.74h2.85v2.49h-2.85Zm-4.65,0h2.85v2.49h-2.85Zm4.65-4h2.85v2.48h-2.85Zm-4.65,0h2.85v2.48h-2.85ZM73.86,48.42a18.11,18.11,0,0,1-.81,1.82h0a31,31,0,0,0-3.71,14.67c0,15.66,16.12,30.3,29.11,42.1,2.74,2.5,5.34,4.86,7.71,7.18l3,3,3-3c2.37-2.32,5-4.68,7.71-7.18,10.8-9.81,23.92-21.54,27.82-34.26,5.5-18-16.42-38.39-39.51-32.17A28.56,28.56,0,0,1,128,47.36a21.75,21.75,0,0,1,7.77,16.39,21.23,21.23,0,0,1-5.26,13.85V64l-6.58-3.31V56.89h-3.43v2l-.73-.37L109,53.13,98.25,58.55,87.51,64V77.08a21.14,21.14,0,0,1-4.83-13.33c0-14.28,15.39-25.55,30.76-27.26a41.73,41.73,0,0,1,18.49,2.07,38.65,38.65,0,0,1,10,5.27c-.45-.33-.9-.65-1.37-1C133.39,34.6,122,29.26,109.21,29.26c-15.49,0-28.89,7.81-35.32,19.17Z"/></clipPath><linearGradient id="linear-gradient-3" x1="37.75" y1="73.89" x2="69.96" y2="9.3" xlink:href="#linear-gradient"/><clipPath id="clip-path-2" transform="translate(-59.3 -27.93)"><path class="cls-2" d="M69.34,64.92c0,15.66,16.12,30.3,29.11,42.1,2.74,2.5,5.34,4.86,7.71,7.18l3,3,3-3,2-1.94c-22.12-17.72-55-46-25.79-69.39a40.57,40.57,0,0,1,17.63-8.06c12.31-2.41,25.2.6,34.48,8.06C133.39,34.6,122,29.26,109.21,29.26c-15.49,0-28.89,7.81-35.32,19.17h0a18.11,18.11,0,0,1-.81,1.82h0a31,31,0,0,0-3.71,14.67"/></clipPath><linearGradient id="linear-gradient-4" x1="45.23" y1="61.8" x2="28.96" y2="3.29" gradientUnits="userSpaceOnUse"><stop offset="0" stop-color="#79b92d"/><stop offset="1" stop-color="#c6ef4d"/></linearGradient><clipPath id="clip-path-3" transform="translate(-59.3 -27.93)"><path class="cls-2" d="M108.27,40.59c25.35-3.37,41,21.65,29,39.6-5.36,8-19.49,19.1-29.42,26.88,2.18,1.82,4.32,3.55,6.37,5.19,1.8-1.7,3.71-3.43,5.7-5.24,10.8-9.81,23.92-21.54,27.82-34.26,5.5-18-16.42-38.39-39.51-32.17"/></clipPath><linearGradient id="linear-gradient-5" x1="45.07" y1="60.21" x2="104.97" y2="26.34" xlink:href="#linear-gradient-4"/><clipPath id="clip-path-4" transform="translate(-59.3 -27.93)"><path class="cls-2" d="M121.78,41.57c21.11,6.89,26.37,26.62,13.19,41.7,12.12-14.6,6.23-35.22-13.19-41.7"/></clipPath><linearGradient id="linear-gradient-6" x1="75.67" y1="65.24" x2="75.67" y2="36.13" gradientUnits="userSpaceOnUse"><stop offset="0" stop-color="#45c941"/><stop offset="1" stop-color="#fff"/></linearGradient><clipPath id="clip-path-5" transform="translate(-59.3 -27.93)"><polygon class="cls-2" points="93.44 93.9 107.92 106.62 124.22 93.8 107.87 107.95 93.44 93.9"/></clipPath><linearGradient id="linear-gradient-7" x1="49.48" y1="80.12" x2="49.58" y2="65.76" gradientUnits="userSpaceOnUse"><stop offset="0" stop-color="#fff"/><stop offset="1" stop-color="#79b92d"/></linearGradient><clipPath id="clip-path-6" transform="translate(-59.3 -27.93)"><path class="cls-2" d="M131,37.24c-22.1-9.31-47.79.57-53.43,21,5.87-19.47,32.66-29.68,53.43-21"/></clipPath><linearGradient id="linear-gradient-8" x1="45" y1="36.2" x2="45" y2="19.04" gradientUnits="userSpaceOnUse"><stop offset="0" stop-color="#79b92d"/><stop offset="1" stop-color="#fff"/></linearGradient><linearGradient id="linear-gradient-9" x1="171.59" y1="82.92" x2="171.59" y2="40.59" xlink:href="#linear-gradient"/><linearGradient id="linear-gradient-10" x1="196.33" y1="82.44" x2="196.33" y2="37.16" xlink:href="#linear-gradient"/><linearGradient id="linear-gradient-11" x1="211.45" y1="82.44" x2="211.45" y2="38.11" xlink:href="#linear-gradient"/><linearGradient id="linear-gradient-12" x1="228.36" y1="82.44" x2="228.36" y2="38.11" xlink:href="#linear-gradient"/><linearGradient id="linear-gradient-13" x1="242.59" y1="82.44" x2="242.59" y2="37.16" xlink:href="#linear-gradient"/><linearGradient id="linear-gradient-14" x1="260.5" y1="82.44" x2="260.5" y2="52.3" xlink:href="#linear-gradient"/><linearGradient id="linear-gradient-15" x1="283.29" y1="82.68" x2="283.29" y2="53" xlink:href="#linear-gradient"/><linearGradient id="linear-gradient-16" x1="301.73" y1="56.61" x2="301.73" y2="39.11" xlink:href="#linear-gradient"/><linearGradient id="linear-gradient-17" x1="315.11" y1="82.44" x2="315.11" y2="53.48" xlink:href="#linear-gradient"/><linearGradient id="linear-gradient-18" x1="355.71" y1="82.44" x2="355.71" y2="41.06" xlink:href="#linear-gradient"/><linearGradient id="linear-gradient-19" x1="386.18" y1="83.27" x2="386.18" y2="52.59" xlink:href="#linear-gradient"/><linearGradient id="linear-gradient-20" x1="412.66" y1="82.86" x2="412.66" y2="53.48" xlink:href="#linear-gradient"/><linearGradient id="linear-gradient-21" x1="435.46" y1="82.44" x2="435.46" y2="53.48" xlink:href="#linear-gradient"/><linearGradient id="linear-gradient-22" x1="456.39" y1="82.44" x2="456.39" y2="53.48" xlink:href="#linear-gradient"/></defs><rect class="cls-3" x="34.82" y="34.7" width="33.27" height="18.94"/><path class="cls-1" d="M109.89,71.74h2.85v2.49h-2.85Zm-4.65,0h2.85v2.49h-2.85Zm4.65-4h2.85v2.48h-2.85Zm-4.65,0h2.85v2.48h-2.85ZM73.86,48.42a18.11,18.11,0,0,1-.81,1.82h0a31,31,0,0,0-3.71,14.67c0,15.66,16.12,30.3,29.11,42.1,2.74,2.5,5.34,4.86,7.71,7.18l3,3,3-3c2.37-2.32,5-4.68,7.71-7.18,10.8-9.81,23.92-21.54,27.82-34.26,5.5-18-16.42-38.39-39.51-32.17A28.56,28.56,0,0,1,128,47.36a21.75,21.75,0,0,1,7.77,16.39,21.23,21.23,0,0,1-5.26,13.85V64l-6.58-3.31V56.89h-3.43v2l-.73-.37L109,53.13,98.25,58.55,87.51,64V77.08a21.14,21.14,0,0,1-4.83-13.33c0-14.28,15.39-25.55,30.76-27.26a41.73,41.73,0,0,1,18.49,2.07,38.65,38.65,0,0,1,10,5.27c-.45-.33-.9-.65-1.37-1C133.39,34.6,122,29.26,109.21,29.26c-15.49,0-28.89,7.81-35.32,19.17Z" transform="translate(-59.3 -27.93)"/><g class="cls-4"><rect class="cls-5" x="10.05" y="1.32" width="83.94" height="87.93"/></g><g class="cls-6"><rect class="cls-7" y="1.32" width="81.28" height="87.93"/></g><g class="cls-8"><rect class="cls-9" x="48.59" y="6.44" width="45.39" height="77.89"/></g><g class="cls-10"><rect class="cls-11" x="62.49" y="13.64" width="26.36" height="41.7"/></g><g class="cls-12"><rect class="cls-13" x="34.15" y="65.87" width="30.78" height="14.15"/></g><g class="cls-14"><rect class="cls-15" x="18.28" width="53.44" height="30.36"/></g><path class="cls-16" d="M164.69,68.29a19,19,0,0,0,1.81,5.29,10.72,10.72,0,0,0,3,3.57,6.76,6.76,0,0,0,4.16,1.33,17.47,17.47,0,0,0,2.07-.11,9.21,9.21,0,0,0,1.51-.33,9.93,9.93,0,0,0,1.13-.44,9.63,9.63,0,0,1,1-.42V64.71h-6.5V60.28h14.86v17.2a26.6,26.6,0,0,1-2.5,2A17.82,17.82,0,0,1,182,81.2a21.25,21.25,0,0,1-4,1.24,23.13,23.13,0,0,1-4.9.48,16.06,16.06,0,0,1-7.57-1.72A16.63,16.63,0,0,1,160,76.56a20.89,20.89,0,0,1-3.41-6.74,27.67,27.67,0,0,1-1.16-8.07,27,27,0,0,1,1.25-8.3,20.43,20.43,0,0,1,3.58-6.71A16.94,16.94,0,0,1,166,42.25a16.54,16.54,0,0,1,7.48-1.66,15.51,15.51,0,0,1,4.41.56,14.09,14.09,0,0,1,3.25,1.42,11.75,11.75,0,0,1,2.42,2,25.92,25.92,0,0,1,1.81,2.16l-2.7,2.9a21.3,21.3,0,0,0-1.6-1.93,7.08,7.08,0,0,0-1.88-1.41,10.15,10.15,0,0,0-2.46-.89,14.76,14.76,0,0,0-3.35-.33,6.42,6.42,0,0,0-4,1.33,10.28,10.28,0,0,0-2.9,3.64,20.62,20.62,0,0,0-1.77,5.35,33.13,33.13,0,0,0-.6,6.41A33.82,33.82,0,0,0,164.69,68.29Z" transform="translate(-59.3 -27.93)"/><path class="cls-17" d="M198.79,44.73a3,3,0,0,1-4.92,0,5.29,5.29,0,0,1,0-6.27,3,3,0,0,1,4.92,0,5.33,5.33,0,0,1,0,6.27Zm1,37.71h-7v-29h7Z" transform="translate(-59.3 -27.93)"/><path class="cls-18" d="M205.29,38.11h7V75.65a3.39,3.39,0,0,0,.77,2.51,3.5,3.5,0,0,0,2.48.74h2.09v3.54h-6.5a5.8,5.8,0,0,1-4.37-1.5c-1-1-1.44-2.69-1.44-5.06Z" transform="translate(-59.3 -27.93)"/><path class="cls-19" d="M222.2,38.11h7V75.65a3.35,3.35,0,0,0,.77,2.51,3.48,3.48,0,0,0,2.48.74h2.09v3.54H228a5.8,5.8,0,0,1-4.37-1.5c-1-1-1.44-2.69-1.44-5.06Z" transform="translate(-59.3 -27.93)"/><path class="cls-20" d="M245.06,44.73a3.06,3.06,0,0,1-2.47,1.3,3,3,0,0,1-2.46-1.3,5.33,5.33,0,0,1,0-6.27,3.06,3.06,0,0,1,2.46-1.3,3.09,3.09,0,0,1,2.47,1.3,5.33,5.33,0,0,1,0,6.27Zm1,37.71h-7v-29h7Z" transform="translate(-59.3 -27.93)"/><path class="cls-21" d="M258.15,53.09a2.87,2.87,0,0,1,2.19-.79q2.55,0,3.39,3.13l7.57,27h-6.87l-1.91-6.85H254.3l-1.81,6.85H249.7l7.29-27A5.63,5.63,0,0,1,258.15,53.09Zm.75,9.85a.51.51,0,0,0-.51-.3.57.57,0,0,0-.54.3,5.29,5.29,0,0,0-.35.88L255.27,72h6.23l-2.28-8.22A7.1,7.1,0,0,0,258.9,62.94Z" transform="translate(-59.3 -27.93)"/><path class="cls-22" d="M275.5,54.13A3.59,3.59,0,0,1,278.08,53a4.44,4.44,0,0,1,4.14,2.9l5.71,11.76c.28.64.57,1,.88,1a.49.49,0,0,0,.52-.29,2.76,2.76,0,0,0,.09-.77V53.48h2.79V79.19a4.23,4.23,0,0,1-.66,2.75,2.23,2.23,0,0,1-1.76.74,2.52,2.52,0,0,1-2-.74,10.53,10.53,0,0,1-1.47-2.33l-7-14.78a3.74,3.74,0,0,0-.55-.92,1,1,0,0,0-.79-.38.68.68,0,0,0-.72.44,3.16,3.16,0,0,0-.17,1.09V82.44h-2.78V57.67A4.84,4.84,0,0,1,275.5,54.13Z" transform="translate(-59.3 -27.93)"/><path class="cls-23" d="M302.08,39.5a2.6,2.6,0,0,1,1.32-.39,2.48,2.48,0,0,1,2.11,1,4.3,4.3,0,0,1,.77,2.63,4,4,0,0,1-.28,1.53,13.88,13.88,0,0,1-1.25,2.16c-.62.93-1.35,2-2.19,3.11s-1.72,2.32-2.67,3.54l-2.71,3.49c.3-1.46.65-3,1-4.7s.73-3.27,1.09-4.79.69-2.84,1-4a25.26,25.26,0,0,1,.74-2.42A2.52,2.52,0,0,1,302.08,39.5Z" transform="translate(-59.3 -27.93)"/><path class="cls-24" d="M315.29,57a3.64,3.64,0,0,0-2,.51,2.1,2.1,0,0,0-.78,1.92,3,3,0,0,0,.25,1.33,2.39,2.39,0,0,0,.91.91,8,8,0,0,0,1.74.8c.73.26,1.65.56,2.76.92A9,9,0,0,1,323,66.69a10.06,10.06,0,0,1,1.72,6.12c0,3.07-.76,5.45-2.3,7.12s-3.86,2.51-7,2.51h-9.15V78.9h7.9a3.57,3.57,0,0,0,2.34-.71c.58-.48.86-1.42.86-2.84a4.08,4.08,0,0,0-1.18-3.16,7.25,7.25,0,0,0-3.51-1.57,9.48,9.48,0,0,1-5.34-2.93,8.77,8.77,0,0,1-1.86-5.94,9.15,9.15,0,0,1,1.88-6,6.76,6.76,0,0,1,5.51-2.27h9.47V57Z" transform="translate(-59.3 -27.93)"/><path class="cls-25" d="M360,58.92V41.06h9.29V82.44H360V63.35h-8.64V82.44h-9.3V41.06h9.3V58.92Z" transform="translate(-59.3 -27.93)"/><path class="cls-26" d="M398.37,73.61a15.68,15.68,0,0,1-2.41,4.9,11.76,11.76,0,0,1-9.78,4.76,11.79,11.79,0,0,1-5.74-1.33,12.29,12.29,0,0,1-4-3.49,15.59,15.59,0,0,1-2.42-4.9,19.74,19.74,0,0,1-.81-5.59,20.13,20.13,0,0,1,.81-5.67,15.42,15.42,0,0,1,2.44-4.94,12.28,12.28,0,0,1,4.07-3.46,11.86,11.86,0,0,1,5.69-1.3,11.67,11.67,0,0,1,5.69,1.33,12.57,12.57,0,0,1,4.06,3.49,15.07,15.07,0,0,1,2.44,4.91,20.08,20.08,0,0,1,0,11.29ZM381,72.31A16.37,16.37,0,0,0,382,76.06a7.78,7.78,0,0,0,1.74,2.66,3.48,3.48,0,0,0,4.88,0,8.08,8.08,0,0,0,1.74-2.66,16.88,16.88,0,0,0,1-3.78,27.14,27.14,0,0,0,0-8.69,17,17,0,0,0-1-3.79,8.08,8.08,0,0,0-1.74-2.66,3.48,3.48,0,0,0-4.88,0A7.73,7.73,0,0,0,382,59.83,17.06,17.06,0,0,0,381,63.64a27,27,0,0,0,0,8.67Z" transform="translate(-59.3 -27.93)"/><path class="cls-27" d="M410.82,77.69a5.3,5.3,0,0,0,4.07,1.62,4.92,4.92,0,0,0,3.83-1.62q1.45-1.64,1.46-5.47V53.48H423V71.92c0,3.86-.85,6.65-2.53,8.37a9.39,9.39,0,0,1-7,2.57,15.41,15.41,0,0,1-4.46-.62,9.41,9.41,0,0,1-3.51-1.92,8.94,8.94,0,0,1-2.3-3.31,12.57,12.57,0,0,1-.84-4.85V53.48h7V72.16Q409.31,76.06,410.82,77.69Z" transform="translate(-59.3 -27.93)"/><path class="cls-28" d="M435.65,57a3.64,3.64,0,0,0-2,.51,2.11,2.11,0,0,0-.79,1.92,3,3,0,0,0,.26,1.33,2.43,2.43,0,0,0,.9.91,8.3,8.3,0,0,0,1.75.8c.72.26,1.65.56,2.76.92a9,9,0,0,1,4.83,3.28,10.06,10.06,0,0,1,1.72,6.12c0,3.07-.77,5.45-2.3,7.12s-3.86,2.51-7,2.51h-9.15V78.9h7.9a3.57,3.57,0,0,0,2.34-.71,3.63,3.63,0,0,0,.86-2.84,4.08,4.08,0,0,0-1.18-3.16,7.25,7.25,0,0,0-3.51-1.57,9.48,9.48,0,0,1-5.34-2.93,8.77,8.77,0,0,1-1.86-5.94,9.15,9.15,0,0,1,1.88-6,6.75,6.75,0,0,1,5.51-2.27h9.47V57Z" transform="translate(-59.3 -27.93)"/><path class="cls-29" d="M456.83,57q-2,0-2,2.61v6h7.66v3.54h-7.66v6.62a3.55,3.55,0,0,0,.67,2.31,2.41,2.41,0,0,0,2,.83H465v3.54H452.47a4.29,4.29,0,0,1-3.28-1.5,6.58,6.58,0,0,1-1.37-4.53V59a6.29,6.29,0,0,1,1.23-4,4.16,4.16,0,0,1,3.46-1.56H464.4V57Z" transform="translate(-59.3 -27.93)"/><text class="cls-30" transform="translate(96.15 84.97)">Bed &amp; Breakfast</text></svg>